<svg xmlns="http://www.w3.org/2000/svg" xmlns:xlink="http://www.w3.org/1999/xlink" width="500" zoomAndPan="magnify" viewBox="0 0 375 374.999991" height="500" preserveAspectRatio="xMidYMid meet" version="1.0"><defs><clipPath id="57f362729c"><path d="M 0 32.882812 L 375 32.882812 L 375 341.882812 L 0 341.882812 Z M 0 32.882812 " clip-rule="nonzero"/></clipPath></defs><g clip-path="url(#57f362729c)"><path fill="#20b2aa" d="M 187.5 140.8125 L 109.6875 235.1875 L 56.980469 191.011719 L 56.980469 301.703125 L 104.417969 301.703125 L 145.832031 271.082031 L 145.832031 342.117188 L 16.566406 342.117188 L 16.566406 125.5 C 7.03125 122.238281 0 113.203125 0 102.410156 C 0 89.105469 10.792969 78.3125 24.347656 78.3125 C 37.652344 78.3125 48.445312 89.105469 48.445312 102.410156 C 48.445312 110.691406 44.429688 118.222656 37.902344 122.488281 L 104.417969 178.460938 L 182.230469 84.085938 C 170.433594 81.574219 161.648438 71.035156 161.648438 58.734375 C 161.648438 44.425781 173.191406 32.882812 187.5 32.882812 C 201.808594 32.882812 213.351562 44.425781 213.351562 58.734375 C 213.351562 71.035156 204.566406 81.574219 193.023438 84.085938 L 262.296875 168.171875 L 229.917969 192.269531 Z M 166.917969 301.703125 L 166.917969 255.519531 L 208.332031 224.648438 L 208.332031 342.117188 L 166.917969 342.117188 Z M 229.167969 275.097656 L 229.167969 209.335938 L 270.582031 178.460938 L 270.582031 301.703125 L 318.273438 301.703125 L 318.273438 191.011719 L 283.882812 219.878906 L 283.882812 167.417969 L 337.097656 122.488281 C 330.820312 118.222656 326.554688 110.691406 326.554688 102.410156 C 326.554688 89.105469 337.347656 78.3125 350.902344 78.3125 C 364.207031 78.3125 375 89.105469 375 102.410156 C 375 113.203125 368.222656 122.238281 358.433594 125.5 L 358.433594 342.117188 L 229.167969 342.117188 Z M 64.507812 315.007812 Z M 64.507812 315.007812 " fill-opacity="1" fill-rule="nonzero"/></g></svg>