<svg xmlns="http://www.w3.org/2000/svg" xmlns:xlink="http://www.w3.org/1999/xlink" width="500" zoomAndPan="magnify" viewBox="0 0 375 374.999991" height="500" preserveAspectRatio="xMidYMid meet" version="1.0"><defs><g/><clipPath id="30bddd0bec"><path d="M 33.375 0 L 341.625 0 L 341.625 254.25 L 33.375 254.25 Z M 33.375 0 " clip-rule="nonzero"/></clipPath></defs><g clip-path="url(#30bddd0bec)"><path fill="#ffffff" d="M 187.5 88.71875 L 123.539062 166.296875 L 80.210938 129.984375 L 80.210938 220.972656 L 119.207031 220.972656 L 153.25 195.800781 L 153.25 254.191406 L 46.992188 254.191406 L 46.992188 76.132812 C 39.152344 73.453125 33.375 66.023438 33.375 57.152344 C 33.375 46.214844 42.246094 37.34375 53.386719 37.34375 C 64.324219 37.34375 73.195312 46.214844 73.195312 57.152344 C 73.195312 63.960938 69.894531 70.148438 64.53125 73.65625 L 119.207031 119.667969 L 183.167969 42.089844 C 173.46875 40.027344 166.246094 31.359375 166.246094 21.25 C 166.246094 9.492188 175.738281 0 187.5 0 C 199.257812 0 208.75 9.492188 208.75 21.25 C 208.75 31.359375 201.527344 40.027344 192.039062 42.089844 L 248.984375 111.207031 L 222.367188 131.015625 Z M 170.582031 220.972656 L 170.582031 183.007812 L 204.625 157.632812 L 204.625 254.191406 L 170.582031 254.191406 Z M 221.75 199.101562 L 221.75 145.046875 L 255.792969 119.667969 L 255.792969 220.972656 L 294.992188 220.972656 L 294.992188 129.984375 L 266.726562 153.710938 L 266.726562 110.589844 L 310.46875 73.65625 C 305.308594 70.148438 301.804688 63.960938 301.804688 57.152344 C 301.804688 46.214844 310.675781 37.34375 321.816406 37.34375 C 332.75 37.34375 341.625 46.214844 341.625 57.152344 C 341.625 66.023438 336.050781 73.453125 328.007812 76.132812 L 328.007812 254.191406 L 221.75 254.191406 Z M 86.398438 231.910156 Z M 86.398438 231.910156 " fill-opacity="1" fill-rule="nonzero"/></g><g fill="#ffffff" fill-opacity="1"><g transform="translate(7.162091, 311.12238)"><g><path d="M 30.359375 0 L 28.28125 -7.890625 L 14.625 -7.890625 L 12.484375 0 L 0 0 L 13.734375 -42.25 L 28.890625 -42.25 L 42.796875 0 Z M 25.921875 -17.203125 L 24.109375 -24.109375 C 23.691406 -25.648438 23.179688 -27.640625 22.578125 -30.078125 C 21.972656 -32.515625 21.570312 -34.257812 21.375 -35.3125 C 21.207031 -34.332031 20.867188 -32.71875 20.359375 -30.46875 C 19.847656 -28.226562 18.722656 -23.804688 16.984375 -17.203125 Z M 25.921875 -17.203125 "/></g></g></g><g fill="#ffffff" fill-opacity="1"><g transform="translate(49.951604, 311.12238)"><g><path d="M 27.109375 0 L 25.703125 -4.0625 L 25.03125 -4.0625 C 24.09375 -2.5625 22.785156 -1.410156 21.109375 -0.609375 C 19.429688 0.179688 17.457031 0.578125 15.1875 0.578125 C 11.601562 0.578125 8.8125 -0.460938 6.8125 -2.546875 C 4.820312 -4.628906 3.828125 -7.570312 3.828125 -11.375 L 3.828125 -32.609375 L 15.078125 -32.609375 L 15.078125 -14.796875 C 15.078125 -12.660156 15.378906 -11.046875 15.984375 -9.953125 C 16.585938 -8.859375 17.582031 -8.3125 18.96875 -8.3125 C 20.90625 -8.3125 22.285156 -9.070312 23.109375 -10.59375 C 23.929688 -12.125 24.34375 -14.703125 24.34375 -18.328125 L 24.34375 -32.609375 L 35.59375 -32.609375 L 35.59375 0 Z M 27.109375 0 "/></g></g></g><g fill="#ffffff" fill-opacity="1"><g transform="translate(89.431909, 311.12238)"><g><path d="M 18.734375 0.578125 C 13.398438 0.578125 9.351562 -0.859375 6.59375 -3.734375 C 3.84375 -6.617188 2.46875 -10.753906 2.46875 -16.140625 C 2.46875 -21.554688 3.953125 -25.75 6.921875 -28.71875 C 9.898438 -31.695312 14.132812 -33.1875 19.625 -33.1875 C 23.40625 -33.1875 26.960938 -32.359375 30.296875 -30.703125 L 27 -22.390625 C 25.632812 -22.984375 24.375 -23.457031 23.21875 -23.8125 C 22.070312 -24.164062 20.875 -24.34375 19.625 -24.34375 C 17.800781 -24.34375 16.390625 -23.632812 15.390625 -22.21875 C 14.398438 -20.800781 13.90625 -18.796875 13.90625 -16.203125 C 13.90625 -10.984375 15.832031 -8.375 19.6875 -8.375 C 22.988281 -8.375 26.15625 -9.332031 29.1875 -11.25 L 29.1875 -2.296875 C 26.28125 -0.378906 22.796875 0.578125 18.734375 0.578125 Z M 18.734375 0.578125 "/></g></g></g><g fill="#ffffff" fill-opacity="1"><g transform="translate(121.200317, 311.12238)"><g><path d="M 19.859375 -8.3125 C 21.367188 -8.3125 23.179688 -8.6875 25.296875 -9.4375 L 25.296875 -1.234375 C 23.773438 -0.585938 22.328125 -0.125 20.953125 0.15625 C 19.585938 0.4375 17.984375 0.578125 16.140625 0.578125 C 12.359375 0.578125 9.632812 -0.347656 7.96875 -2.203125 C 6.300781 -4.054688 5.46875 -6.898438 5.46875 -10.734375 L 5.46875 -24.171875 L 1.53125 -24.171875 L 1.53125 -28.75 L 6.53125 -32.28125 L 9.4375 -39.140625 L 16.8125 -39.140625 L 16.8125 -32.609375 L 24.8125 -32.609375 L 24.8125 -24.171875 L 16.8125 -24.171875 L 16.8125 -11.484375 C 16.8125 -9.367188 17.828125 -8.3125 19.859375 -8.3125 Z M 19.859375 -8.3125 "/></g></g></g><g fill="#ffffff" fill-opacity="1"><g transform="translate(148.307056, 311.12238)"><g><path d="M 15.1875 0 L 3.9375 0 L 3.9375 -32.609375 L 15.1875 -32.609375 Z M 3.65625 -40.71875 C 3.65625 -42.40625 4.125 -43.660156 5.0625 -44.484375 C 6 -45.316406 7.515625 -45.734375 9.609375 -45.734375 C 11.703125 -45.734375 13.226562 -45.3125 14.1875 -44.46875 C 15.144531 -43.625 15.625 -42.375 15.625 -40.71875 C 15.625 -37.414062 13.617188 -35.765625 9.609375 -35.765625 C 5.640625 -35.765625 3.65625 -37.414062 3.65625 -40.71875 Z M 3.65625 -40.71875 "/></g></g></g><g fill="#ffffff" fill-opacity="1"><g transform="translate(167.471694, 311.12238)"><g><path d="M 35.015625 -16.375 C 35.015625 -11.039062 33.582031 -6.878906 30.71875 -3.890625 C 27.851562 -0.910156 23.835938 0.578125 18.671875 0.578125 C 13.722656 0.578125 9.785156 -0.945312 6.859375 -4 C 3.929688 -7.050781 2.46875 -11.175781 2.46875 -16.375 C 2.46875 -21.6875 3.898438 -25.816406 6.765625 -28.765625 C 9.640625 -31.710938 13.664062 -33.1875 18.84375 -33.1875 C 22.050781 -33.1875 24.878906 -32.503906 27.328125 -31.140625 C 29.785156 -29.773438 31.679688 -27.820312 33.015625 -25.28125 C 34.347656 -22.738281 35.015625 -19.769531 35.015625 -16.375 Z M 13.90625 -16.375 C 13.90625 -13.570312 14.273438 -11.4375 15.015625 -9.96875 C 15.765625 -8.5 17.023438 -7.765625 18.796875 -7.765625 C 20.535156 -7.765625 21.765625 -8.5 22.484375 -9.96875 C 23.203125 -11.4375 23.5625 -13.570312 23.5625 -16.375 C 23.5625 -19.15625 23.195312 -21.253906 22.46875 -22.671875 C 21.738281 -24.097656 20.492188 -24.8125 18.734375 -24.8125 C 17.003906 -24.8125 15.765625 -24.101562 15.015625 -22.6875 C 14.273438 -21.28125 13.90625 -19.175781 13.90625 -16.375 Z M 13.90625 -16.375 "/></g></g></g><g fill="#ffffff" fill-opacity="1"><g transform="translate(205.024025, 311.12238)"><g><path d="M 24.46875 0 L 24.46875 -17.78125 C 24.46875 -19.945312 24.15625 -21.582031 23.53125 -22.6875 C 22.90625 -23.789062 21.898438 -24.34375 20.515625 -24.34375 C 18.617188 -24.34375 17.25 -23.582031 16.40625 -22.0625 C 15.5625 -20.550781 15.140625 -17.957031 15.140625 -14.28125 L 15.140625 0 L 3.890625 0 L 3.890625 -32.609375 L 12.375 -32.609375 L 13.78125 -28.578125 L 14.453125 -28.578125 C 15.410156 -30.109375 16.738281 -31.257812 18.4375 -32.03125 C 20.132812 -32.800781 22.082031 -33.1875 24.28125 -33.1875 C 27.894531 -33.1875 30.703125 -32.140625 32.703125 -30.046875 C 34.710938 -27.953125 35.71875 -25.003906 35.71875 -21.203125 L 35.71875 0 Z M 24.46875 0 "/></g></g></g><g fill="#ffffff" fill-opacity="1"><g transform="translate(244.504329, 311.12238)"><g><path d="M 40.609375 0 L 29.1875 0 L 29.1875 -17.15625 L 15.96875 -17.15625 L 15.96875 0 L 4.546875 0 L 4.546875 -42.078125 L 15.96875 -42.078125 L 15.96875 -26.46875 L 29.1875 -26.46875 L 29.1875 -42.078125 L 40.609375 -42.078125 Z M 40.609375 0 "/></g></g></g><g fill="#ffffff" fill-opacity="1"><g transform="translate(289.653453, 311.12238)"><g><path d="M 27.109375 0 L 25.703125 -4.0625 L 25.03125 -4.0625 C 24.09375 -2.5625 22.785156 -1.410156 21.109375 -0.609375 C 19.429688 0.179688 17.457031 0.578125 15.1875 0.578125 C 11.601562 0.578125 8.8125 -0.460938 6.8125 -2.546875 C 4.820312 -4.628906 3.828125 -7.570312 3.828125 -11.375 L 3.828125 -32.609375 L 15.078125 -32.609375 L 15.078125 -14.796875 C 15.078125 -12.660156 15.378906 -11.046875 15.984375 -9.953125 C 16.585938 -8.859375 17.582031 -8.3125 18.96875 -8.3125 C 20.90625 -8.3125 22.285156 -9.070312 23.109375 -10.59375 C 23.929688 -12.125 24.34375 -14.703125 24.34375 -18.328125 L 24.34375 -32.609375 L 35.59375 -32.609375 L 35.59375 0 Z M 27.109375 0 "/></g></g></g><g fill="#ffffff" fill-opacity="1"><g transform="translate(329.13374, 311.12238)"><g><path d="M 23.796875 -33.1875 C 27.347656 -33.1875 30.164062 -31.695312 32.25 -28.71875 C 34.332031 -25.75 35.375 -21.632812 35.375 -16.375 C 35.375 -11.082031 34.320312 -6.929688 32.21875 -3.921875 C 30.113281 -0.921875 27.191406 0.578125 23.453125 0.578125 C 22.242188 0.578125 21.171875 0.445312 20.234375 0.1875 C 19.296875 -0.0703125 18.457031 -0.429688 17.71875 -0.890625 C 16.976562 -1.347656 16.117188 -2.113281 15.140625 -3.1875 L 14.453125 -3.1875 L 12.65625 0 L 3.890625 0 L 3.890625 -44.78125 L 15.140625 -44.78125 L 15.140625 -34.65625 C 15.140625 -33.4375 15.003906 -31.351562 14.734375 -28.40625 L 15.140625 -28.40625 C 16.234375 -30.09375 17.492188 -31.3125 18.921875 -32.0625 C 20.347656 -32.8125 21.972656 -33.1875 23.796875 -33.1875 Z M 19.6875 -24.34375 C 18.113281 -24.34375 16.960938 -23.796875 16.234375 -22.703125 C 15.503906 -21.609375 15.140625 -19.890625 15.140625 -17.546875 L 15.140625 -15.96875 C 15.140625 -13.300781 15.503906 -11.382812 16.234375 -10.21875 C 16.960938 -9.0625 18.148438 -8.484375 19.796875 -8.484375 C 21.117188 -8.484375 22.132812 -9.160156 22.84375 -10.515625 C 23.5625 -11.867188 23.921875 -13.859375 23.921875 -16.484375 C 23.921875 -21.722656 22.507812 -24.34375 19.6875 -24.34375 Z M 19.6875 -24.34375 "/></g></g></g></svg>